<svg width="12" height="12" viewBox="0 0 12 12" fill="none" xmlns="http://www.w3.org/2000/svg">
<g clip-path="url(#clip0_1_371)">
<path d="M6.00325 6.29395C5.86169 6.28452 5.71771 6.32912 5.61095 6.4388L1.20845 10.9481C1.01422 11.1472 1.01777 11.4662 1.21639 11.6609C1.41504 11.8557 1.73345 11.8521 1.92819 11.653L6.01631 7.46559L10.1968 11.5608C10.3954 11.7556 10.7138 11.752 10.9081 11.5529C11.1023 11.3537 11.0987 11.0348 10.9001 10.8401L6.3982 6.43C6.28903 6.32276 6.14461 6.28186 6.00325 6.29395ZM5.54354 0.391048L0.146072 5.91978C-0.0481589 6.11893 -0.0446041 6.43783 0.154017 6.63258C0.352658 6.82734 0.671566 6.82379 0.865308 6.62465L5.9489 1.41785L11.1468 6.51007C11.3454 6.70483 11.6638 6.70128 11.8586 6.50213C12.0529 6.30299 12.0493 5.98408 11.8507 5.78934L6.33132 0.382793C6.22215 0.275525 6.07721 0.234652 5.93587 0.247231C5.79429 0.237279 5.6503 0.28188 5.54354 0.391048Z" fill="black"/>
</g>
<defs>
<clipPath id="clip0_1_371">
<rect width="12" height="12" fill="white"/>
</clipPath>
</defs>
</svg>
