<svg width="26" height="26" viewBox="0 0 26 26" fill="none" xmlns="http://www.w3.org/2000/svg">
<path d="M24.9167 11.939H1.08333C0.485331 11.939 0 12.4244 0 13.0224C0 13.6204 0.485331 14.1057 1.08333 14.1057H24.9167C25.5147 14.1057 26 13.6204 26 13.0224C26 12.4244 25.5147 11.939 24.9167 11.939Z" fill="black"/>
<path d="M24.9167 20.2447H1.08333C0.485331 20.2447 0 20.73 0 21.328C0 21.926 0.485331 22.4114 1.08333 22.4114H24.9167C25.5147 22.4114 26 21.926 26 21.328C26 20.73 25.5147 20.2447 24.9167 20.2447Z" fill="black"/>
<path d="M24.9167 3.63387H1.08333C0.485331 3.63387 0 4.1192 0 4.7172C0 5.31521 0.485331 5.80054 1.08333 5.80054H24.9167C25.5147 5.80054 26 5.31521 26 4.7172C26 4.1192 25.5147 3.63387 24.9167 3.63387Z" fill="black"/>
</svg>
